# Material - TI0116 Trabalho computacional 02

# Áudios 

Os áudios disponibilizados consistem em gravações de voz que foram corrompidas por um ruído. São dois casos listados abaixo, um para uma voz masculina e outro para uma voz feminina.

## Áudio 01
Arquivo: ```01.wav```

Information from ffmpeg:
```
Input #0, wav, from 'audio_male_voice.wav':
  Metadata:
    encoder         : Lavf60.16.100
  Duration: 00:00:14.11, bitrate: 705 kb/s
  Stream #0:0: Audio: pcm_s16le ([1][0][0][0] / 0x0001), 44100 Hz, 1 channels, s16, 705 kb/s
```
- Taxa de amostragem: 44100 Hz
- Duração: 14.11s

## Áudio 02
Arquivo: ```02.wav```.

Information from ffmpeg:
```
Input #0, wav, from 'audio_female.wav':
  Metadata:
    encoder         : Lavf60.16.100
  Duration: 00:00:13.63, bitrate: 352 kb/s
  Stream #0:0: Audio: pcm_s16le ([1][0][0][0] / 0x0001), 22050 Hz, 1 channels, s16, 352 kb/s
```
- Taxa de amostragem: 22050 Hz
- Duração: 13.63s

# Arquivo .py

Segue o arquivo ```.py``` com os imports e funções necessárias para a 
realização da atividade. 
